<?xml version="1.0" standalone="no"?>
<!DOCTYPE svg PUBLIC "-//W3C//DTD SVG 20010904//EN"
 "http://www.w3.org/TR/2001/REC-SVG-20010904/DTD/svg10.dtd">
<svg version="1.0" xmlns="http://www.w3.org/2000/svg"
 width="320.000000pt" height="320.000000pt" viewBox="0 0 320.000000 320.000000"
 preserveAspectRatio="xMidYMid meet">

<g transform="translate(0.000000,320.000000) scale(0.100000,-0.100000)"
fill="#000000" stroke="none">
<path d="M0 2180 l0 -1020 152 0 152 0 32 31 c25 24 43 32 73 33 22 1 43 5 47
9 4 4 15 7 24 7 9 0 38 14 64 31 40 27 50 30 69 20 13 -7 15 -10 4 -6 -11 3
-16 1 -12 -6 4 -5 0 -20 -7 -32 -39 -61 -42 -102 -43 -482 0 -203 2 -374 4
-380 3 -5 6 -57 7 -115 1 -58 3 -105 4 -105 0 0 2 -16 4 -36 3 -42 23 -68 47
-62 12 3 17 -1 16 -13 -2 -14 7 -20 38 -25 22 -4 64 -12 94 -18 29 -6 145 -11
257 -11 195 0 204 1 204 19 0 11 4 22 8 25 11 6 2 76 -9 76 -5 0 -9 5 -9 10 0
6 12 10 26 10 14 0 23 4 19 10 -3 6 2 10 11 10 10 0 15 3 11 6 -3 4 -14 3 -24
-1 -31 -14 -63 -16 -63 -5 0 5 6 10 13 10 6 0 4 5 -5 11 -10 5 -18 14 -18 19
0 15 27 12 44 -6 9 -8 21 -12 27 -8 8 4 7 9 -2 15 -10 6 -8 9 7 9 12 0 36 6
54 14 l32 13 -30 11 c-24 8 -32 8 -36 -4 -7 -18 -26 -18 -26 1 0 7 -8 19 -17
24 -10 6 -13 11 -7 11 6 0 17 -7 24 -15 10 -12 14 -12 26 0 10 10 22 11 43 5
16 -4 33 -5 37 -2 4 4 4 -1 1 -10 -4 -12 -1 -18 8 -18 17 0 19 18 6 39 -5 8
-14 10 -21 6 -7 -4 -16 -2 -21 6 -12 19 -11 29 1 29 6 0 10 -8 10 -17 0 -15 2
-16 10 -3 9 13 11 13 20 0 7 -12 13 -13 28 -3 16 9 22 8 35 -8 18 -20 62 -26
72 -9 4 6 -8 10 -27 11 -26 1 -22 3 20 11 52 9 78 4 55 -10 -6 -4 -14 -22 -18
-40 -3 -17 -11 -32 -16 -32 -5 0 -9 -7 -9 -15 0 -8 -5 -15 -11 -15 -6 0 -9 -9
-6 -20 3 -13 0 -20 -9 -20 -8 0 -14 -7 -14 -16 0 -12 -6 -15 -25 -10 -27 7
-34 -8 -10 -21 13 -8 13 -12 -5 -30 -12 -14 -16 -24 -9 -28 5 -4 7 -15 4 -25
-5 -16 -2 -17 31 -10 20 5 41 13 47 19 5 5 24 7 40 4 24 -5 29 -3 25 9 -5 11
0 14 18 10 16 -3 26 1 30 12 3 9 11 16 16 16 6 0 8 -7 4 -15 -4 -12 0 -14 22
-9 15 4 30 12 34 18 5 6 8 7 8 1 0 -6 21 -9 50 -7 46 4 68 -9 37 -21 -6 -3 11
-6 40 -6 41 -1 51 -4 47 -15 -5 -13 12 -15 103 -16 59 0 140 -2 178 -5 68 -5
70 -4 83 22 6 15 12 35 12 44 0 10 5 21 10 24 6 3 10 16 10 29 0 12 3 26 7 30
4 3 7 21 8 38 1 18 7 34 13 36 7 2 10 13 6 28 -4 16 -2 24 7 24 7 0 9 3 6 7
-4 3 -3 11 2 17 10 13 31 72 37 106 3 14 16 70 28 125 44 188 54 610 18 715
-11 30 -19 56 -18 57 1 1 20 0 41 -4 32 -5 35 -8 20 -14 -14 -5 -15 -8 -5 -9
23 -1 50 -44 59 -97 10 -49 6 -68 -10 -58 -5 3 -6 -1 -3 -9 3 -9 11 -16 16
-16 6 0 6 -6 -1 -14 -7 -8 -8 -17 -3 -20 5 -3 12 -28 16 -56 5 -34 11 -50 21
-50 16 0 31 -43 20 -59 -4 -7 0 -8 11 -4 14 5 16 2 11 -16 -3 -14 2 -31 16
-49 25 -31 27 -52 9 -74 -10 -12 -10 -22 -1 -44 7 -16 11 -35 10 -41 -1 -7 5
-13 14 -13 11 0 13 -5 8 -18 -10 -21 -10 -43 0 -59 4 -7 0 -14 -12 -18 -32
-10 -12 -50 25 -50 20 0 28 -5 26 -14 -2 -8 3 -18 10 -22 9 -6 8 -10 -5 -15
-25 -9 -21 -27 6 -22 28 5 47 -13 47 -46 0 -14 4 -27 9 -30 5 -3 7 -15 4 -26
-3 -12 0 -20 6 -20 8 0 10 16 7 53 -22 210 -27 304 -27 462 1 99 3 207 5 240
3 33 6 98 7 145 1 67 5 86 18 92 14 6 14 7 -1 7 -18 1 -23 12 -12 24 3 3 31
-3 62 -14 87 -30 250 -67 320 -74 l62 -5 0 975 0 975 -375 0 -375 0 0 -77 c0
-43 -7 -131 -17 -196 -16 -118 -16 -118 -30 -80 -7 21 -13 39 -13 40 -1 9 -71
40 -75 32 -4 -5 -13 -6 -23 0 -29 15 -122 24 -122 12 0 -7 -8 -7 -24 -1 -13 5
-26 7 -28 5 -2 -2 -24 -6 -48 -9 -165 -21 -225 -41 -241 -83 -6 -15 -8 -39 -6
-53 3 -13 1 -53 -5 -88 -7 -45 -7 -67 1 -75 8 -8 11 -8 11 1 0 7 7 12 15 12
18 0 20 -21 3 -39 -11 -11 -8 -12 14 -7 15 3 30 2 33 -4 3 -5 -3 -10 -14 -10
-19 0 -18 -3 11 -44 44 -63 130 -107 217 -113 57 -4 69 -2 90 16 13 12 27 21
31 21 3 0 19 20 34 45 19 29 36 45 49 45 19 0 19 5 13 69 -4 51 -3 71 7 74 6
3 3 5 -8 5 -11 0 -45 9 -75 20 -30 10 -76 22 -102 26 -27 4 -48 11 -48 16 0
10 26 20 54 20 12 0 27 5 33 11 28 28 183 1 183 -31 0 -6 9 -10 20 -10 19 0
20 -7 22 -112 2 -182 1 -219 -12 -298 -17 -109 -51 -271 -63 -300 -6 -14 -10
-28 -9 -32 1 -5 -3 -8 -10 -8 -6 0 -9 -3 -5 -6 7 -8 -32 -84 -44 -84 -5 0 -9
-9 -9 -20 0 -11 -7 -23 -15 -26 -8 -4 -15 -17 -15 -31 0 -22 -2 -24 -15 -13
-12 10 -15 10 -15 -2 0 -8 -9 -25 -20 -38 -18 -21 -20 -22 -22 -4 0 10 -2 24
-3 29 -2 6 -3 22 -4 36 -1 27 -46 67 -83 74 -12 3 -26 9 -32 15 -5 5 -21 10
-33 10 -43 0 -114 47 -121 79 -1 7 11 31 28 54 l31 42 -26 3 c-14 2 -45 -6
-69 -18 -33 -15 -54 -19 -84 -14 -23 3 -56 1 -77 -6 -34 -11 -39 -10 -63 13
-20 19 -42 27 -89 33 -35 3 -63 4 -63 0 0 -4 7 -20 15 -36 18 -35 5 -67 -32
-76 -12 -3 -28 -12 -34 -20 -10 -12 -14 -12 -21 -2 -8 10 -11 10 -15 1 -2 -7
-11 -13 -18 -13 -7 0 -15 -3 -18 -7 -2 -5 -2 -2 -1 4 4 16 -12 17 -21 2 -4 -6
-13 -8 -20 -5 -8 3 -15 2 -17 -2 -2 -4 -18 -19 -36 -34 -19 -16 -28 -28 -22
-28 6 0 8 -5 5 -10 -4 -6 -11 -8 -16 -4 -24 14 -49 -33 -64 -119 -4 -28 -10
-37 -21 -33 -8 3 -14 1 -14 -4 0 -6 -4 -10 -10 -10 -5 0 -10 8 -10 18 0 9 -9
23 -20 30 -11 7 -20 21 -20 32 0 11 -4 20 -10 20 -5 0 -7 7 -3 16 6 16 -61 86
-73 75 -4 -3 -4 4 0 15 5 18 1 22 -24 27 -25 5 -30 11 -30 34 0 21 -3 24 -9
14 -8 -12 -11 -9 -16 11 -4 15 -12 29 -19 31 -7 3 -19 27 -25 54 -7 26 -17 57
-21 68 -56 133 -69 291 -37 425 27 110 47 355 40 488 l-6 112 -414 0 -413 0 0
-1020z m2247 521 c23 -12 45 -25 48 -31 9 -14 -8 -12 -24 3 -11 10 -13 10 -7
0 9 -16 6 -16 -39 3 -21 8 -46 13 -57 11 -10 -3 -16 -2 -13 3 2 4 -9 10 -25
14 -17 3 -30 11 -30 17 0 18 97 4 147 -20z m-1635 -49 c-10 -57 4 -176 19
-150 4 8 9 25 11 39 6 40 32 89 48 89 8 0 23 -14 33 -32 l18 -31 -29 -29 c-27
-26 -52 -91 -52 -134 0 -18 40 -84 51 -84 4 0 5 19 2 43 -2 28 3 55 16 82 l19
40 0 -110 c1 -70 -3 -103 -8 -90 -8 18 -9 18 -9 2 -1 -10 5 -25 13 -32 8 -8
17 -42 21 -75 6 -55 5 -63 -15 -80 -30 -26 -52 -25 -88 5 -39 33 -64 133 -63
260 0 53 -6 120 -14 151 -13 50 -13 64 2 130 18 84 40 89 25 6z m1408 -47 c7
-9 8 -15 2 -15 -5 0 -12 7 -16 15 -3 8 -4 15 -2 15 2 0 9 -7 16 -15z m190 -59
c0 -9 -123 -5 -145 4 -13 6 6 7 53 3 68 -5 72 -4 65 13 -6 18 -6 18 10 2 9 -9
17 -19 17 -22z m249 -103 c-6 -21 -18 -83 -29 -138 -22 -112 -48 -209 -49
-183 -1 9 3 38 9 65 5 26 17 95 26 152 15 96 29 141 45 141 4 0 3 -17 -2 -37z
m-82 -380 c-3 -10 -5 -4 -5 12 0 17 2 24 5 18 2 -7 2 -21 0 -30z m-659 -222
c26 -2 11 -21 -17 -21 -40 0 -91 11 -87 19 3 5 32 6 104 2z m-213 -102 c23
-18 291 -28 339 -13 18 6 18 6 0 -19 -11 -16 -26 -24 -35 -21 -9 2 -27 -5 -41
-16 -14 -11 -40 -21 -57 -22 -17 -1 -31 -6 -31 -10 0 -7 -39 -2 -48 6 -3 3 6
10 19 16 21 9 18 10 -16 6 -22 -3 -58 -1 -80 4 -112 25 -105 26 -62 -4 21 -14
50 -29 65 -32 43 -11 45 -15 15 -34 -19 -12 -30 -14 -35 -6 -6 8 -8 7 -8 -1 0
-13 -40 -4 -88 20 -20 9 -25 8 -33 -6 -13 -22 -45 -22 -58 1 -8 13 -11 14 -11
2 0 -11 -4 -9 -13 5 -6 11 -12 22 -12 25 0 3 -4 18 -8 33 -6 23 -3 34 16 52
l23 24 50 -23 c46 -21 50 -22 50 -5 0 10 -4 15 -8 13 -4 -3 -8 1 -8 9 0 15 55
12 75 -4z m493 -29 c-3 -17 -1 -33 3 -36 4 -2 1 -18 -8 -34 -11 -23 -21 -30
-43 -30 -23 0 -28 -4 -24 -17 4 -13 3 -14 -3 -5 -7 8 -22 11 -49 7 -21 -4 -46
-6 -54 -6 -8 1 -50 1 -92 1 -43 0 -78 4 -78 9 0 6 24 9 53 8 33 -1 64 4 86 16
19 9 39 17 45 17 6 0 22 10 36 23 92 83 135 99 128 47z m-1012 -225 c-3 -9 0
-15 8 -15 8 0 16 -9 19 -21 3 -12 10 -18 15 -15 11 6 35 -41 27 -54 -3 -5 -1
-11 5 -15 7 -4 7 -12 0 -25 -15 -27 -12 -38 10 -45 12 -4 20 -15 20 -29 0 -32
-8 -36 -38 -20 -15 8 -41 14 -58 14 -18 0 -34 6 -36 13 -2 6 -2 67 0 134 4
109 6 121 19 107 8 -8 12 -21 9 -29z m1140 -139 c21 -21 17 -54 -7 -61 -14 -5
-17 -10 -10 -18 10 -13 3 -64 -10 -73 -5 -3 -7 20 -6 52 3 39 9 61 21 69 14
11 15 13 1 19 -8 3 -15 10 -15 16 0 14 9 13 26 -4z m279 -16 c3 -6 -1 -7 -9
-4 -18 7 -21 14 -7 14 6 0 13 -4 16 -10z m163 -36 c14 -4 21 -12 18 -20 -3 -7
2 -20 10 -29 8 -8 12 -19 9 -25 -3 -6 0 -13 8 -16 8 -3 18 -24 21 -47 4 -23
11 -44 16 -47 5 -3 12 -26 14 -50 3 -25 8 -55 11 -66 5 -16 2 -23 -14 -27 -12
-3 -21 -1 -21 4 0 5 5 9 10 9 6 0 10 5 10 10 0 6 -7 10 -15 10 -8 0 -15 7 -15
16 0 9 -13 42 -29 73 -25 49 -38 104 -44 176 -1 11 -9 23 -17 27 -19 9 -2 10
28 2z m-1936 -51 c-11 -21 -22 -45 -26 -53 -3 -8 -4 -1 0 15 5 29 29 75 39 75
3 0 -3 -17 -13 -37z m278 -38 c0 -85 -19 -135 -50 -135 -20 0 -60 44 -60 67 0
16 56 93 77 106 7 4 13 15 13 22 0 8 5 15 10 15 6 0 10 -32 10 -75z m1107 40
c-10 -7 -17 -17 -17 -24 0 -6 -4 -11 -10 -11 -5 0 -10 -7 -10 -15 0 -8 -4 -15
-10 -15 -16 0 -11 27 6 34 11 4 14 13 10 30 -5 21 -3 23 21 18 23 -4 24 -6 10
-17z m98 -74 c-8 -17 -18 -31 -21 -31 -3 0 -4 3 -2 8 21 43 32 61 35 58 3 -2
-3 -18 -12 -35z m555 35 c0 -2 -7 -7 -16 -10 -8 -3 -12 -2 -9 4 6 10 25 14 25
6z m-589 -57 c-5 -13 -10 -19 -10 -12 -1 15 10 45 15 40 3 -2 0 -15 -5 -28z
m59 -19 c-6 -11 -13 -20 -16 -20 -2 0 0 9 6 20 6 11 13 20 16 20 2 0 0 -9 -6
-20z m-63 -14 c3 -3 -4 -15 -16 -27 -12 -13 -21 -26 -21 -31 0 -4 -9 -12 -20
-18 -17 -9 -19 -8 -13 7 3 10 10 24 16 31 5 6 6 12 2 12 -4 0 -2 6 4 13 6 8 8
17 5 20 -4 4 4 4 16 2 12 -2 25 -6 27 -9z m33 -33 c-1 -14 -30 -47 -36 -41 -8
8 14 48 26 48 6 0 10 -3 10 -7z m-1235 -84 c11 -17 -1 -21 -15 -4 -8 9 -8 15
-2 15 6 0 14 -5 17 -11z m1175 -263 c-13 -42 -7 -74 7 -37 7 18 18 24 44 26
19 1 44 -2 57 -7 15 -5 21 -4 17 2 -3 6 -2 10 4 10 21 0 23 -24 5 -77 -16 -47
-20 -52 -31 -37 -10 13 -15 15 -27 5 -18 -16 -81 0 -81 19 0 21 -34 25 -41 5
-6 -13 -8 -14 -15 -3 -6 9 -9 7 -9 -9 0 -13 -4 -23 -9 -23 -11 0 4 61 17 69 5
3 21 28 37 54 31 54 43 56 25 3z m-1126 -31 c3 -8 1 -15 -3 -15 -5 0 -11 7
-15 15 -3 8 -1 15 3 15 5 0 11 -7 15 -15z m-154 -51 c0 -7 4 -15 8 -18 5 -3 7
9 5 27 -2 26 -1 27 5 9 9 -30 26 -33 30 -5 3 18 9 21 40 19 l37 -2 2 -53 c1
-39 -1 -50 -10 -43 -7 5 -29 8 -49 7 -21 -1 -38 2 -38 6 0 5 -6 6 -14 3 -10
-4 -16 5 -21 28 -4 18 -12 40 -19 48 -10 13 -9 13 7 1 9 -7 17 -19 17 -27z
m211 -66 c12 -38 19 -72 16 -75 -10 -9 -79 138 -73 154 11 28 35 -6 57 -79z
m1299 75 c0 -23 -53 -127 -62 -125 -5 1 -15 2 -23 2 -8 0 -15 8 -14 18 0 10 3
12 6 5 14 -36 61 27 51 69 -3 14 21 47 35 48 4 0 7 -8 7 -17z m-1613 -20 c8
30 22 18 52 -45 31 -64 54 -148 32 -118 -6 8 -11 11 -11 5 -1 -13 -36 57 -51
102 -8 25 -14 32 -22 24 -6 -6 -19 -11 -29 -11 -13 0 -18 8 -18 29 0 35 22 46
34 17 8 -19 10 -19 13 -3z m354 -6 c-10 -9 -11 -8 -5 6 3 10 9 15 12 12 3 -3
0 -11 -7 -18z m1181 -39 c-8 -8 -9 -4 -5 13 4 13 8 18 11 10 2 -7 -1 -18 -6
-23z m-669 -5 c-7 -2 -19 -2 -25 0 -7 3 -2 5 12 5 14 0 19 -2 13 -5z m-464
-42 c-2 -6 -10 2 -17 17 -11 25 -11 25 4 10 9 -9 15 -21 13 -27z m-134 19 c3
-5 1 -10 -4 -10 -6 0 -11 5 -11 10 0 6 2 10 4 10 3 0 8 -4 11 -10z m538 -17
c-7 -2 -19 -2 -25 0 -7 3 -2 5 12 5 14 0 19 -2 13 -5z m-36 -163 c3 -10 2 -11
-4 -4 -4 6 -15 14 -23 17 -11 5 -9 6 4 4 11 -1 21 -9 23 -17z m59 9 c7 -11
-12 -29 -31 -29 -5 1 -2 5 9 11 15 9 16 13 5 20 -9 6 -10 9 -2 9 6 0 15 -5 19
-11z m27 -34 c-3 -9 -8 -14 -10 -11 -3 3 -2 9 2 15 9 16 15 13 8 -4z m-49 -17
c-3 -5 -20 -6 -36 -3 -21 5 -28 4 -24 -4 5 -7 -4 -11 -26 -10 -18 1 -25 3 -15
6 9 2 17 8 17 13 0 5 20 9 45 8 25 0 42 -5 39 -10z m127 -20 c-27 -11 -32 -9
-21 12 9 16 13 18 24 8 12 -11 11 -14 -3 -20z m-71 -8 c-8 -5 -19 -10 -25 -10
-5 0 -3 5 5 10 8 5 20 10 25 10 6 0 3 -5 -5 -10z m-280 -20 c0 -5 -4 -10 -10
-10 -5 0 -10 5 -10 10 0 6 5 10 10 10 6 0 10 -4 10 -10z m-15 -60 c3 -5 2 -10
-4 -10 -5 0 -13 5 -16 10 -3 6 -2 10 4 10 5 0 13 -4 16 -10z m522 -122 c-3 -8
-6 -5 -6 6 -1 11 2 17 5 13 3 -3 4 -12 1 -19z m53 12 c0 -5 -4 -10 -10 -10 -5
0 -10 5 -10 10 0 6 5 10 10 10 6 0 10 -4 10 -10z m-1183 -26 c-3 -3 -12 -4
-19 -1 -8 3 -5 6 6 6 11 1 17 -2 13 -5z m1136 -21 c-7 -2 -19 -2 -25 0 -7 3
-2 5 12 5 14 0 19 -2 13 -5z"/>
<path d="M972 1294 c-7 -8 -8 -14 -3 -14 10 0 25 19 20 25 -2 1 -10 -3 -17
-11z"/>
<path d="M988 2972 c-53 -30 -71 -57 -70 -103 1 -43 12 -51 47 -33 16 8 40 12
52 9 13 -3 23 -1 23 5 0 12 49 3 65 -11 5 -5 20 -9 34 -9 14 0 52 -8 85 -17
l61 -18 -90 -6 c-49 -3 -106 -9 -125 -13 -23 -5 -30 -4 -22 2 11 8 11 10 -1
15 -10 4 -21 -6 -33 -28 -23 -43 -14 -53 23 -27 41 30 170 49 222 33 24 -7 41
-18 41 -26 0 -8 -5 -15 -11 -15 -5 0 -7 -4 -4 -10 5 -8 -48 -12 -160 -10 -12
0 -105 -53 -117 -67 -10 -13 -9 -18 10 -33 12 -10 22 -23 22 -29 0 -6 5 -11
10 -11 6 0 10 -8 10 -17 1 -30 63 -90 106 -102 88 -25 183 -7 259 49 22 16 57
41 77 55 46 31 70 82 73 155 1 30 5 73 9 95 5 29 5 36 -3 25 -9 -13 -11 -13
-11 2 0 9 -3 24 -7 34 -4 12 -3 15 5 10 22 -13 12 5 -15 29 -19 17 -35 23 -51
20 -12 -3 -56 6 -97 20 -96 33 -169 46 -280 50 -82 3 -94 1 -137 -23z m382
-337 c6 -8 9 -19 5 -25 -3 -5 2 -10 14 -10 11 0 23 -5 26 -10 4 -6 -10 -10
-37 -10 -24 0 -74 -3 -113 -6 -41 -3 -80 -1 -95 5 -21 9 -16 10 24 5 81 -9
120 2 133 37 12 32 24 36 43 14z"/>
<path d="M576 1265 c-9 -26 -7 -32 5 -12 6 10 9 21 6 23 -2 3 -7 -2 -11 -11z"/>
<path d="M2440 1250 c0 -5 5 -10 10 -10 6 0 10 5 10 10 0 6 -4 10 -10 10 -5 0
-10 -4 -10 -10z"/>
<path d="M3128 1233 c7 -3 16 -2 19 1 4 3 -2 6 -13 5 -11 0 -14 -3 -6 -6z"/>
<path d="M3003 1223 c9 -2 23 -2 30 0 6 3 -1 5 -18 5 -16 0 -22 -2 -12 -5z"/>
<path d="M2847 1173 c-13 -12 -7 -51 9 -57 23 -9 23 -9 14 25 -11 37 -14 41
-23 32z"/>
<path d="M346 1133 c-24 -84 -45 -443 -26 -443 16 0 24 30 13 41 -7 7 -6 20 4
40 12 24 12 33 2 45 -10 13 -10 17 1 24 8 5 11 18 8 35 -4 18 -2 25 6 22 8 -3
11 5 8 24 -2 16 -9 29 -14 29 -5 0 -3 7 5 15 11 10 15 38 15 100 -1 79 -10
108 -22 68z"/>
<path d="M7 1133 c-4 -3 -7 -12 -7 -20 0 -11 4 -11 20 -1 11 7 20 16 20 20 0
10 -24 10 -33 1z"/>
<path d="M2877 1106 c-17 -13 -17 -15 7 -40 15 -14 26 -29 26 -35 0 -5 9 -13
20 -16 14 -5 19 -12 15 -25 -4 -11 1 -20 12 -24 12 -5 14 -9 5 -15 -8 -5 -9
-16 -3 -37 17 -61 24 -156 11 -164 -8 -5 -7 -9 5 -14 16 -6 17 3 12 106 -4 62
-9 124 -11 138 -2 14 -5 41 -5 60 -1 24 -4 31 -10 21 -7 -11 -10 -9 -16 8 -3
11 -14 21 -23 21 -13 0 -13 2 4 15 18 14 18 14 -6 14 -14 0 -33 -6 -43 -13z"/>
<path d="M2982 695 c0 -16 2 -22 5 -12 2 9 2 23 0 30 -3 6 -5 -1 -5 -18z"/>
<path d="M329 593 c3 -50 17 -77 32 -67 5 3 5 14 -1 25 -6 11 -8 23 -5 28 6
10 -14 61 -24 61 -3 0 -5 -21 -2 -47z"/>
<path d="M340 478 c0 -18 7 -78 15 -132 8 -55 15 -112 15 -127 0 -32 16 -47
33 -30 8 8 8 11 0 11 -14 0 -13 42 0 51 5 4 4 16 -3 28 -9 18 -9 26 2 39 11
13 11 14 -1 7 -11 -6 -13 -4 -8 9 4 9 3 15 -2 12 -5 -3 -12 2 -15 11 -4 9 -1
20 6 24 8 5 9 11 1 21 -6 7 -13 33 -16 58 -3 25 -6 46 -6 48 -1 1 -5 2 -11 2
-5 0 -10 -15 -10 -32z"/>
<path d="M2482 429 c-1 -31 2 -48 8 -44 12 7 14 95 2 95 -4 0 -9 -23 -10 -51z"/>
<path d="M2473 363 c-18 -7 -16 -23 2 -23 8 0 15 7 15 15 0 8 -1 15 -2 14 -2
0 -9 -3 -15 -6z"/>
<path d="M2470 299 c0 -5 5 -7 10 -4 6 3 10 8 10 11 0 2 -4 4 -10 4 -5 0 -10
-5 -10 -11z"/>
<path d="M2472 248 c-15 -15 -16 -28 -2 -28 6 0 10 6 10 14 0 8 6 17 13 19 6
3 7 6 2 6 -6 1 -16 -4 -23 -11z"/>
<path d="M501 214 c0 -11 3 -14 6 -6 3 7 2 16 -1 19 -3 4 -6 -2 -5 -13z"/>
<path d="M2990 215 c-4 -92 -14 -115 -52 -115 -12 0 -15 -6 -11 -22 3 -14 1
-19 -4 -12 -14 18 -43 25 -43 10 0 -43 14 -76 31 -76 11 0 19 5 19 10 0 7 6 7
19 0 11 -5 34 -10 51 -10 31 0 32 1 27 33 -3 17 -9 64 -13 102 -6 70 -22 122
-24 80z m-20 -139 c0 -3 -4 -8 -10 -11 -5 -3 -10 -1 -10 4 0 6 5 11 10 11 6 0
10 -2 10 -4z"/>
<path d="M502 155 c0 -16 2 -22 5 -12 2 9 2 23 0 30 -3 6 -5 -1 -5 -18z"/>
<path d="M2861 164 c0 -11 3 -14 6 -6 3 7 2 16 -1 19 -3 4 -6 -2 -5 -13z"/>
<path d="M29 43 c-5 -44 5 -58 16 -24 3 10 1 29 -3 42 -8 21 -10 19 -13 -18z"/>
</g>
</svg>
